<svg width="28" height="28" viewBox="0 0 28 28" fill="none" xmlns="http://www.w3.org/2000/svg">
<path fill-rule="evenodd" clip-rule="evenodd" d="M23.1972 9.95165C23.2847 10.115 23.3337 10.3016 23.3337 10.5V21C23.3337 23.5771 21.2453 25.6666 18.667 25.6666H5.83366C5.18966 25.6666 4.66699 25.144 4.66699 24.5V3.49998C4.66699 2.85598 5.18966 2.33331 5.83366 2.33331H15.167C15.3653 2.33331 15.552 2.38231 15.7153 2.46981L15.7188 2.47215C15.8098 2.51998 15.895 2.58181 15.972 2.65531L15.9918 2.67515L22.9918 9.67514L23.0117 9.69498C23.0863 9.77315 23.147 9.85831 23.196 9.94814L23.1972 9.95165ZM14.0003 4.66665H7.00033V23.3333H18.667C19.9562 23.3333 21.0003 22.2891 21.0003 21V11.6666H15.167C14.523 11.6666 14.0003 11.144 14.0003 10.5V4.66665ZM11.667 21H16.3337C16.9777 21 17.5003 20.4773 17.5003 19.8333C17.5003 19.1893 16.9777 18.6666 16.3337 18.6666H11.667C11.023 18.6666 10.5003 19.1893 10.5003 19.8333C10.5003 20.4773 11.023 21 11.667 21ZM10.5003 16.3333H17.5003C18.1443 16.3333 18.667 15.8106 18.667 15.1666C18.667 14.5226 18.1443 14 17.5003 14H10.5003C9.85633 14 9.33366 14.5226 9.33366 15.1666C9.33366 15.8106 9.85633 16.3333 10.5003 16.3333ZM19.3507 9.33331L16.3337 6.31631V9.33331H19.3507Z" fill="white"/>
</svg>
