<svg width="26" height="26" viewBox="0 0 26 26" fill="none" xmlns="http://www.w3.org/2000/svg">
<path d="M18.8335 9.50232C21.371 9.51632 22.7453 9.62949 23.6413 10.5255C24.6668 11.551 24.6668 13.2007 24.6668 16.5V17.6667C24.6668 20.9672 24.6668 22.6168 23.6413 23.6423C22.617 24.6667 20.9662 24.6667 17.6668 24.6667H8.3335C5.03416 24.6667 3.38333 24.6667 2.359 23.6423C1.3335 22.6157 1.3335 20.9672 1.3335 17.6667V16.5C1.3335 13.2007 1.3335 11.551 2.359 10.5255C3.255 9.62949 4.62933 9.51632 7.16683 9.50232" stroke="#1362FC" stroke-width="1.5" stroke-linecap="round"/>
<path d="M13 1.33331V16.5M13 16.5L9.5 12.4166M13 16.5L16.5 12.4166" stroke="#1362FC" stroke-width="1.5" stroke-linecap="round" stroke-linejoin="round"/>
</svg>
