<svg width="30" height="30" viewBox="0 0 30 30" fill="none" xmlns="http://www.w3.org/2000/svg">
<path d="M24.8719 9.81563L18.3094 3.25313C18.1776 3.12123 17.9989 3.04704 17.8125 3.04688H6.5625C6.12738 3.04688 5.71008 3.21973 5.4024 3.5274C5.09473 3.83508 4.92188 4.25238 4.92188 4.6875V25.3125C4.92188 25.7476 5.09473 26.1649 5.4024 26.4726C5.71008 26.7803 6.12738 26.9531 6.5625 26.9531H23.4375C23.8726 26.9531 24.2899 26.7803 24.5976 26.4726C24.9053 26.1649 25.0781 25.7476 25.0781 25.3125V10.3125C25.078 10.1261 25.0038 9.94736 24.8719 9.81563ZM18.5156 5.44687L22.6781 9.60938H18.5156V5.44687ZM23.4375 25.5469H6.5625C6.50034 25.5469 6.44073 25.5222 6.39677 25.4782C6.35282 25.4343 6.32812 25.3747 6.32812 25.3125V4.6875C6.32812 4.62534 6.35282 4.56573 6.39677 4.52177C6.44073 4.47782 6.50034 4.45312 6.5625 4.45312H17.1094V10.3125C17.1094 10.499 17.1835 10.6778 17.3153 10.8097C17.4472 10.9415 17.626 11.0156 17.8125 11.0156H23.6719V25.3125C23.6719 25.3747 23.6472 25.4343 23.6032 25.4782C23.5593 25.5222 23.4997 25.5469 23.4375 25.5469Z" fill="#1362FC"/>
<path d="M14 20.75V18.5H11.75C11.535 18.5 11.3565 18.4285 11.2145 18.2855C11.0725 18.1425 11.001 17.964 11 17.75C10.999 17.536 11.0705 17.3575 11.2145 17.2145C11.3585 17.0715 11.537 17 11.75 17H14V14.75C14 14.535 14.0715 14.3565 14.2145 14.2145C14.3575 14.0725 14.536 14.001 14.75 14C14.964 13.999 15.1425 14.0705 15.2855 14.2145C15.4285 14.3585 15.5 14.537 15.5 14.75V17H17.75C17.964 17 18.1425 17.0715 18.2855 17.2145C18.4285 17.3575 18.5 17.536 18.5 17.75C18.5 17.964 18.4285 18.1425 18.2855 18.2855C18.1425 18.4285 17.964 18.5 17.75 18.5H15.5V20.75C15.5 20.964 15.4285 21.1425 15.2855 21.2855C15.1425 21.4285 14.964 21.5 14.75 21.5C14.536 21.5 14.3575 21.4285 14.2145 21.2855C14.0715 21.1425 14 20.964 14 20.75Z" fill="#1362FC"/>
</svg>
