<svg width="27" height="21" viewBox="0 0 27 21" fill="none" xmlns="http://www.w3.org/2000/svg">
<path d="M2.424 21C1.733 21 1.1565 20.769 0.6945 20.307C0.2325 19.845 0.001 19.268 0 18.576V2.424C0 1.733 0.2315 1.1565 0.6945 0.6945C1.1575 0.2325 1.7335 0.001 2.4225 0H8.8875C9.2105 0 9.5245 0.0650002 9.8295 0.195C10.1345 0.327 10.3955 0.5015 10.6125 0.7185L12.894 3H24.5775C25.2675 3 25.844 3.2315 26.307 3.6945C26.77 4.1575 27.001 4.734 27 5.424V18.5775C27 19.2675 26.769 19.844 26.307 20.307C25.845 20.77 25.2685 21.001 24.5775 21H2.424ZM2.424 19.5H24.5775C24.8465 19.5 25.0675 19.4135 25.2405 19.2405C25.4135 19.0675 25.5 18.8465 25.5 18.5775V5.4225C25.5 5.1535 25.4135 4.9325 25.2405 4.7595C25.0675 4.5865 24.8465 4.5 24.5775 4.5H12.2925L9.549 1.7595C9.453 1.6635 9.352 1.5965 9.246 1.5585C9.142 1.5195 9.033 1.5 8.919 1.5H2.424C2.155 1.5 1.934 1.5865 1.761 1.7595C1.588 1.9325 1.501 2.154 1.5 2.424V18.5775C1.5 18.8465 1.5865 19.0675 1.7595 19.2405C1.9325 19.4135 2.154 19.5 2.424 19.5ZM17.25 12.75V15C17.25 15.214 17.3215 15.3925 17.4645 15.5355C17.6075 15.6785 17.786 15.75 18 15.75C18.214 15.75 18.3925 15.6785 18.5355 15.5355C18.6785 15.3925 18.75 15.214 18.75 15V12.75H21C21.214 12.75 21.3925 12.6785 21.5355 12.5355C21.6785 12.3925 21.75 12.214 21.75 12C21.75 11.786 21.6785 11.6075 21.5355 11.4645C21.3925 11.3215 21.214 11.25 21 11.25H18.75V9C18.75 8.787 18.6785 8.6085 18.5355 8.4645C18.3925 8.3205 18.214 8.249 18 8.25C17.786 8.251 17.6075 8.3225 17.4645 8.4645C17.3215 8.6065 17.25 8.785 17.25 9V11.25H15C14.787 11.25 14.6085 11.3215 14.4645 11.4645C14.3205 11.6075 14.249 11.786 14.25 12C14.251 12.214 14.3225 12.3925 14.4645 12.5355C14.6065 12.6785 14.785 12.75 15 12.75H17.25Z" fill="#1362FC"/>
</svg>
