<svg width="34" height="34" viewBox="0 0 34 34" fill="none" xmlns="http://www.w3.org/2000/svg">
<g clip-path="url(#clip0_1007_910)">
<path d="M25.732 17.6359C26.2314 15.5984 26.1384 13.4606 25.464 11.474C24.7895 9.48754 23.5617 7.73502 21.9249 6.42274C20.2881 5.11046 18.3106 4.29302 16.2249 4.06663C14.1393 3.84024 12.0324 4.21432 10.1522 5.14484C8.27197 6.07536 6.69668 7.5236 5.61169 9.31913C4.52671 11.1147 3.97719 13.1827 4.02781 15.28C4.07842 17.3773 4.72707 19.4165 5.8974 21.1576C7.06774 22.8986 8.71107 24.2692 10.634 25.1079M4.02399 15.0119H26.046" stroke="#BFBFBF" stroke-linecap="round" stroke-linejoin="round"/>
<path d="M11.764 20.094C11.2112 18.452 10.8855 16.7422 10.796 15.012C11.0041 10.9849 12.4876 7.12842 15.032 4C17.5756 7.12867 19.0583 10.9852 19.266 15.012C19.2299 15.7183 19.1544 16.4221 19.04 17.12M21.916 19.356L29.976 22.848L21.916 26.34L13.86 22.848L21.92 19.356H21.916Z" stroke="#BFBFBF" stroke-linecap="round" stroke-linejoin="round"/>
<path d="M17.514 24.44L17.522 28.24C17.522 28.24 18.852 30 21.916 30C24.98 30 26.316 28.24 26.316 28.24V24.44M13.858 28.99V22.848" stroke="#BFBFBF" stroke-linecap="round" stroke-linejoin="round"/>
</g>
<defs>
<clipPath id="clip0_1007_910">
<rect width="28" height="28" fill="white" transform="translate(3 3)"/>
</clipPath>
</defs>
</svg>
