<svg width="24" height="24" viewBox="0 0 24 24" fill="none" xmlns="http://www.w3.org/2000/svg">
<g clip-path="url(#clip0_1019_1330)">
<path d="M12 14.1C13.1573 14.1 14.2672 13.6364 15.0856 12.8113C15.9039 11.9861 16.3636 10.867 16.3636 9.7C16.3636 8.53305 15.9039 7.41389 15.0856 6.58873C14.2672 5.76357 13.1573 5.3 12 5.3C10.8427 5.3 9.73278 5.76357 8.91444 6.58873C8.0961 7.41389 7.63636 8.53305 7.63636 9.7C7.63636 10.867 8.0961 11.9861 8.91444 12.8113C9.73278 13.6364 10.8427 14.1 12 14.1ZM12 14.1C10.264 14.1 8.59918 14.7954 7.37167 16.0331C6.14415 17.2708 5.45455 18.9496 5.45455 20.7V24M12 14.1C13.736 14.1 15.4008 14.7954 16.6283 16.0331C17.8558 17.2708 18.5455 18.9496 18.5455 20.7V24M13.0909 5.3C13.5316 3.4696 15.2891 2 17.4545 2C19.824 2 21.7964 3.969 21.8182 6.4C21.7964 8.831 19.824 10.8 17.4545 10.8M17.4545 10.8H16.3636M17.4545 10.8C21.0415 10.8 24 13.7546 24 17.4V19.6M10.9091 5.3C10.4684 3.4696 8.71091 2 6.54545 2C4.176 2 2.20364 3.969 2.18182 6.4C2.20364 8.831 4.176 10.8 6.54545 10.8M6.54545 10.8H7.63636M6.54545 10.8C2.95855 10.8 0 13.7546 0 17.4V19.6" stroke="#ACACAC" stroke-width="2"/>
</g>
<defs>
<clipPath id="clip0_1019_1330">
<rect width="24" height="24" fill="white"/>
</clipPath>
</defs>
</svg>
