<svg width="28" height="28" viewBox="0 0 28 28" fill="none" xmlns="http://www.w3.org/2000/svg">
<g clip-path="url(#clip0_1019_1691)">
<path d="M5.83335 23.3333C6.47769 23.3333 7.00002 22.811 7.00002 22.1667C7.00002 21.5223 6.47769 21 5.83335 21C5.18902 21 4.66669 21.5223 4.66669 22.1667C4.66669 22.811 5.18902 23.3333 5.83335 23.3333Z" fill="#BFBFBF"/>
<path d="M4.66669 4.66663H7.00002V15.1666H4.66669V4.66663Z" fill="#BFBFBF"/>
<path d="M8.16665 2.33337H3.49998C3.19056 2.33337 2.89381 2.45629 2.67502 2.67508C2.45623 2.89388 2.33331 3.19062 2.33331 3.50004V24.5C2.33331 24.8095 2.45623 25.1062 2.67502 25.325C2.89381 25.5438 3.19056 25.6667 3.49998 25.6667H8.16665C8.47607 25.6667 8.77281 25.5438 8.9916 25.325C9.2104 25.1062 9.33331 24.8095 9.33331 24.5V3.50004C9.33331 3.19062 9.2104 2.89388 8.9916 2.67508C8.77281 2.45629 8.47607 2.33337 8.16665 2.33337ZM8.16665 24.5H3.49998V3.50004H8.16665V24.5Z" fill="#BFBFBF"/>
<path d="M14 23.3333C14.6443 23.3333 15.1666 22.811 15.1666 22.1667C15.1666 21.5223 14.6443 21 14 21C13.3556 21 12.8333 21.5223 12.8333 22.1667C12.8333 22.811 13.3556 23.3333 14 23.3333Z" fill="#BFBFBF"/>
<path d="M12.8333 4.66663H15.1666V15.1666H12.8333V4.66663Z" fill="#BFBFBF"/>
<path d="M16.3333 2.33337H11.6667C11.3572 2.33337 11.0605 2.45629 10.8417 2.67508C10.6229 2.89388 10.5 3.19062 10.5 3.50004V24.5C10.5 24.8095 10.6229 25.1062 10.8417 25.325C11.0605 25.5438 11.3572 25.6667 11.6667 25.6667H16.3333C16.6428 25.6667 16.9395 25.5438 17.1583 25.325C17.3771 25.1062 17.5 24.8095 17.5 24.5V3.50004C17.5 3.19062 17.3771 2.89388 17.1583 2.67508C16.9395 2.45629 16.6428 2.33337 16.3333 2.33337ZM16.3333 24.5H11.6667V3.50004H16.3333V24.5Z" fill="#BFBFBF"/>
<path d="M22.1667 23.3333C22.811 23.3333 23.3333 22.811 23.3333 22.1667C23.3333 21.5223 22.811 21 22.1667 21C21.5223 21 21 21.5223 21 22.1667C21 22.811 21.5223 23.3333 22.1667 23.3333Z" fill="#BFBFBF"/>
<path d="M21 4.66663H23.3333V15.1666H21V4.66663Z" fill="#BFBFBF"/>
<path d="M24.5 2.33337H19.8334C19.5239 2.33337 19.2272 2.45629 19.0084 2.67508C18.7896 2.89388 18.6667 3.19062 18.6667 3.50004V24.5C18.6667 24.8095 18.7896 25.1062 19.0084 25.325C19.2272 25.5438 19.5239 25.6667 19.8334 25.6667H24.5C24.8094 25.6667 25.1062 25.5438 25.325 25.325C25.5438 25.1062 25.6667 24.8095 25.6667 24.5V3.50004C25.6667 3.19062 25.5438 2.89388 25.325 2.67508C25.1062 2.45629 24.8094 2.33337 24.5 2.33337ZM24.5 24.5H19.8334V3.50004H24.5V24.5Z" fill="#BFBFBF"/>
</g>
<defs>
<clipPath id="clip0_1019_1691">
<rect width="28" height="28" fill="white"/>
</clipPath>
</defs>
</svg>
