<svg width="28" height="28" viewBox="0 0 28 28" fill="none" xmlns="http://www.w3.org/2000/svg">
<path d="M17.7835 5.26286L9.92252 13.125L9.09768 15.5995L7.88435 16.814L11.1837 20.1134L12.397 18.9L14.8727 18.074L22.7325 10.2142L17.7835 5.26286ZM25.2082 9.38819C25.4269 9.60698 25.5498 9.90367 25.5498 10.213C25.5498 10.5224 25.4269 10.8191 25.2082 11.0379L16.1338 20.1122L13.6582 20.937L12.0085 22.5879C11.7897 22.8066 11.493 22.9294 11.1837 22.9294C10.8743 22.9294 10.5776 22.8066 10.3588 22.5879L5.40868 17.6377C5.18997 17.4189 5.0671 17.1222 5.0671 16.8129C5.0671 16.5035 5.18997 16.2068 5.40868 15.988L7.05835 14.3384L7.88318 11.8627L16.9587 2.78836C17.1775 2.56965 17.4742 2.44678 17.7835 2.44678C18.0929 2.44678 18.3896 2.56965 18.6084 2.78836L25.2082 9.38819ZM17.7835 8.56336L19.4332 10.213L13.6582 15.988L12.0085 14.3384L17.7835 8.56336ZM4.99685 19.7004L8.29618 22.9997L6.64652 24.6505L1.69635 22.9997L4.99685 19.7004Z" fill="#BFBFBF"/>
</svg>
