<svg width="26" height="26" viewBox="0 0 26 26" fill="none" xmlns="http://www.w3.org/2000/svg">
<path d="M3.08333 25.75C2.30417 25.75 1.63739 25.4728 1.083 24.9184C0.528611 24.364 0.250944 23.6968 0.25 22.9167V3.08333C0.25 2.30417 0.527667 1.63739 1.083 1.083C1.63833 0.528611 2.30511 0.250944 3.08333 0.25H22.9167C23.6958 0.25 24.3631 0.527667 24.9184 1.083C25.4737 1.63833 25.7509 2.30511 25.75 3.08333V22.9167C25.75 23.6958 25.4728 24.3631 24.9184 24.9184C24.364 25.4737 23.6968 25.7509 22.9167 25.75H3.08333ZM3.08333 7.79375H22.9167V3.08333H3.08333V7.79375ZM3.08333 15.3729H22.9167V10.6271H3.08333V15.3729ZM3.08333 22.9167H22.9167V18.2062H3.08333V22.9167ZM4.5 6.8375V4.00417H7.33333V6.8375H4.5ZM4.5 14.4167V11.5833H7.33333V14.4167H4.5ZM4.5 21.9958V19.1625H7.33333V21.9958H4.5Z" fill="#ACACAC"/>
</svg>
