<svg width="34" height="34" viewBox="0 0 34 34" fill="none" xmlns="http://www.w3.org/2000/svg">
<path d="M10 9C9.73478 9 9.48043 9.10536 9.29289 9.29289C9.10536 9.48043 9 9.73478 9 10C9 10.2652 9.10536 10.5196 9.29289 10.7071C9.48043 10.8946 9.73478 11 10 11H24C24.2652 11 24.5196 10.8946 24.7071 10.7071C24.8946 10.5196 25 10.2652 25 10C25 9.73478 24.8946 9.48043 24.7071 9.29289C24.5196 9.10536 24.2652 9 24 9H10ZM9 3C7.4087 3 5.88258 3.63214 4.75736 4.75736C3.63214 5.88258 3 7.4087 3 9V25C3 26.5913 3.63214 28.1174 4.75736 29.2426C5.88258 30.3679 7.4087 31 9 31H25C26.5913 31 28.1174 30.3679 29.2426 29.2426C30.3679 28.1174 31 26.5913 31 25V9C31 7.4087 30.3679 5.88258 29.2426 4.75736C28.1174 3.63214 26.5913 3 25 3H9ZM5 9C5 7.93913 5.42143 6.92172 6.17157 6.17157C6.92172 5.42143 7.93913 5 9 5H25C26.0609 5 27.0783 5.42143 27.8284 6.17157C28.5786 6.92172 29 7.93913 29 9V25C29 26.0609 28.5786 27.0783 27.8284 27.8284C27.0783 28.5786 26.0609 29 25 29H9C7.93913 29 6.92172 28.5786 6.17157 27.8284C5.42143 27.0783 5 26.0609 5 25V9Z" fill="#BFBFBF"/>
</svg>
