<svg width="28" height="28" viewBox="0 0 28 28" fill="none" xmlns="http://www.w3.org/2000/svg">
<path d="M16.3333 14H18.0833V17.29L20.93 18.935L20.055 20.4517L16.3333 18.305V14ZM4.66665 2.33337H21C21.6188 2.33337 22.2123 2.57921 22.6499 3.01679C23.0875 3.45438 23.3333 4.04787 23.3333 4.66671V11.7834C24.78 13.2534 25.6666 15.2717 25.6666 17.5C25.6666 19.666 24.8062 21.7432 23.2747 23.2747C21.7431 24.8063 19.6659 25.6667 17.5 25.6667C15.2716 25.6667 13.2533 24.78 11.7833 23.3334H4.66665C4.04781 23.3334 3.45432 23.0875 3.01673 22.65C2.57915 22.2124 2.33331 21.6189 2.33331 21V4.66671C2.33331 4.04787 2.57915 3.45438 3.01673 3.01679C3.45432 2.57921 4.04781 2.33337 4.66665 2.33337ZM4.66665 17.5V21H10.115C9.61331 19.9384 9.33331 18.7484 9.33331 17.5H4.66665ZM4.66665 9.33337H11.6666V5.83337H4.66665V9.33337ZM21 9.33337V5.83337H14V9.33337H21ZM4.66665 15.1667H9.67165C10.0683 13.825 10.8033 12.6234 11.7833 11.6667H4.66665V15.1667ZM17.5 11.8417C15.9993 11.8417 14.5601 12.4379 13.4989 13.499C12.4378 14.5601 11.8416 15.9994 11.8416 17.5C11.8416 20.6267 14.3733 23.1584 17.5 23.1584C18.243 23.1584 18.9788 23.012 19.6653 22.7277C20.3518 22.4433 20.9756 22.0265 21.501 21.5011C22.0265 20.9757 22.4432 20.3519 22.7276 19.6654C23.012 18.9789 23.1583 18.2431 23.1583 17.5C23.1583 14.3734 20.6266 11.8417 17.5 11.8417Z" fill="#BFBFBF"/>
</svg>
