<svg width="28" height="28" viewBox="0 0 28 28" fill="none" xmlns="http://www.w3.org/2000/svg">
<path fill-rule="evenodd" clip-rule="evenodd" d="M12.8335 5.91732V3.49998C12.8335 2.85598 13.3561 2.33331 14.0001 2.33331C14.643 2.33331 15.1668 2.85598 15.1668 3.49998V5.91732C16.9005 6.16698 18.521 6.97198 19.774 8.22498C21.3058 9.75681 22.1668 11.8346 22.1668 14V18.3913L23.1106 20.279C23.5621 21.1831 23.5143 22.2565 22.9823 23.1163C22.4515 23.9761 21.5123 24.5 20.502 24.5H15.1668C15.1668 25.144 14.643 25.6666 14.0001 25.6666C13.3561 25.6666 12.8335 25.144 12.8335 24.5H7.49829C6.48679 24.5 5.54764 23.9761 5.01681 23.1163C4.48481 22.2565 4.43696 21.1831 4.88963 20.279L5.83345 18.3913V14C5.83345 11.8346 6.69331 9.75681 8.22514 8.22498C9.47931 6.97198 11.0986 6.16698 12.8335 5.91732ZM14.0001 8.16664C12.452 8.16664 10.9691 8.78148 9.87481 9.87581C8.78048 10.969 8.16679 12.453 8.16679 14V18.6666C8.16679 18.8475 8.12363 19.026 8.04313 19.1881C8.04313 19.1881 7.52396 20.2265 6.97562 21.322C6.88579 21.5028 6.89513 21.7186 7.00129 21.8901C7.10746 22.0616 7.29529 22.1666 7.49829 22.1666H20.502C20.7038 22.1666 20.8916 22.0616 20.9978 21.8901C21.104 21.7186 21.1133 21.5028 21.0235 21.322C20.4751 20.2265 19.956 19.1881 19.956 19.1881C19.8755 19.026 19.8335 18.8475 19.8335 18.6666V14C19.8335 12.453 19.2186 10.969 18.1243 9.87581C17.03 8.78148 15.5471 8.16664 14.0001 8.16664Z" fill="#1362FC"/>
</svg>
